<?xml version="1.0" standalone="no"?>
<!DOCTYPE svg PUBLIC "-//W3C//DTD SVG 20010904//EN"
 "http://www.w3.org/TR/2001/REC-SVG-20010904/DTD/svg10.dtd">
<svg version="1.0" xmlns="http://www.w3.org/2000/svg"
 width="137.000000pt" height="122.000000pt" viewBox="0 0 137.000000 122.000000"
 preserveAspectRatio="xMidYMid meet">

<g transform="translate(0.000000,122.000000) scale(0.100000,-0.100000)" stroke="none">
<path d="M0 610 l0 -610 685 0 685 0 0 610 0 610 -685 0 -685 0 0 -610z m1092
237 l130 -227 -130 -228 -129 -227 -267 0 -267 0 -129 227 -128 227 131 231
131 230 265 -2 264 -3 129 -228z"/>
<path d="M489 991 l30 -59 168 54 c92 30 173 56 178 58 6 3 -83 5 -198 5
l-207 1 29 -59z"/>
<path d="M742 973 c-106 -36 -192 -66 -190 -68 11 -10 462 -284 464 -282 3 4
-71 406 -76 410 -3 2 -92 -25 -198 -60z"/>
<path d="M333 849 c-96 -169 -100 -178 -65 -150 20 16 79 72 131 125 l95 95
-24 51 c-13 28 -27 53 -30 55 -3 2 -51 -77 -107 -176z"/>
<path d="M982 970 c3 -8 18 -88 33 -177 16 -89 31 -167 35 -173 6 -9 23 -9 69
2 l61 13 -96 170 c-91 162 -113 198 -102 165z"/>
<path d="M357 747 l-139 -132 141 -145 140 -145 0 278 c1 152 0 277 -1 277 -2
0 -65 -60 -141 -133z"/>
<path d="M527 767 c-9 -150 -9 -447 0 -447 13 0 473 263 473 271 0 5 -377 238
-461 285 -3 2 -9 -47 -12 -109z"/>
<path d="M1113 592 c-41 -9 -64 -19 -67 -30 -13 -42 -76 -315 -73 -318 1 -2
49 79 105 178 56 100 101 182 100 183 -2 1 -31 -5 -65 -13z"/>
<path d="M776 427 l-229 -131 189 -48 c104 -25 191 -44 194 -42 8 9 87 354 81
353 -3 0 -109 -59 -235 -132z"/>
<path d="M293 462 c112 -201 143 -252 150 -249 5 1 18 19 30 40 l21 37 -105
108 c-57 60 -109 112 -116 115 -7 3 2 -20 20 -51z"/>
<path d="M491 234 c-12 -19 -21 -37 -21 -40 0 -2 84 -4 188 -3 l187 1 -150 39
c-82 21 -157 39 -167 39 -9 0 -25 -16 -37 -36z"/>
</g>
</svg>
