<?xml version="1.0" encoding="utf-8"?>
<!-- Uploaded to: SVG Repo, www.svgrepo.com, Generator: SVG Repo Mixer Tools -->
<svg width="800px" height="800px" viewBox="0 0 1024 1024" class="icon"  version="1.1" xmlns="http://www.w3.org/2000/svg"><path d="M512.1 847C290 847 64.3 659.9 64.3 511.1S290 175.2 512.1 175.2 960 362.3 960 511.1 734.2 847 512.1 847z" fill="#2fd883" /><path d="M512.1 791c193.3 0 391.9-164.6 391.9-279.9S705.4 231.2 512.1 231.2 120.3 395.8 120.3 511.1 318.9 791 512.1 791z" fill="#00002d" /><path d="M512.1 735c-123.7 0-223.9-100.3-223.9-223.9s100.3-223.9 223.9-223.9S736 387.5 736 511.1 635.8 735 512.1 735z" fill="#2fd883" /><path d="M512.1 707C620.3 707 708 619.3 708 511.1s-87.7-195.9-195.9-195.9-195.9 87.7-195.9 195.9S403.9 707 512.1 707z" fill="#00002d" /><path d="M386.2 511.1c-14 0-14-8.1-14-14 0-70 56-126 126-126 4.4 0 14 5.3 14 14s-14 14-14 14c-56 0-98 42-98 98 0 0 0 14-14 14z" fill="#2fd883" /></svg>